IDResults
version=1
nRows=27
nColumns=21
inDegrees=yes
endheader
time	crank_angle	pedal_angle_r	pelvis_tilt	pelvis_list	pelvis_rotation	pelvis_tx	pelvis_ty	pelvis_tz	hip_angle_r	hip_adduction_r	hip_rotation_r	knee_angle_r	tib_tx_r	tib_ty_r	pat_angle_r	pat_tx_r	pat_ty_r	ankle_angle_r	subtalar_angle_r	mtp_angle_r
      2.27102685	  -1135.40771636	   1140.20229280	      0.00000000	      0.00000000	      0.00000000	     -0.10000000	     -0.05000000	     -0.00085074	     77.74823673	      4.17202154	     -1.96469644	    -95.24707964	      0.00301485	     -0.48775587	     17.58666877	      0.03070197	     -0.02292242	     22.82938935	      0.00000000	      0.00000000
      2.27119675	  -1135.48929191	   1140.29972800	      0.00000000	      0.00000000	      0.00000000	     -0.10000000	     -0.05000000	     -0.00085074	     77.72513716	      4.17235049	     -1.96112494	    -95.20224243	      0.00302265	     -0.48774034	     17.58648537	      0.03072000	     -0.02292027	     22.82326883	      0.00000000	      0.00000000
      2.27148704	  -1135.62867136	   1140.46618601	      0.00000000	      0.00000000	      0.00000000	     -0.10000000	     -0.05000000	     -0.00085074	     77.68557980	      4.17291193	     -1.95502176	    -95.12558700	      0.00303594	     -0.48771378	     17.58617214	      0.03075080	     -0.02291661	     22.81283528	      0.00000000	      0.00000000
      2.27187300	  -1135.81398566	   1140.68746585	      0.00000000	      0.00000000	      0.00000000	     -0.10000000	     -0.05000000	     -0.00085074	     77.63281102	      4.17365718	     -1.94690533	    -95.02357726	      0.00305355	     -0.48767843	     17.58575599	      0.03079176	     -0.02291174	     22.79901007	      0.00000000	      0.00000000
      2.27192719	  -1135.84000437	   1140.71853084	      0.00000000	      0.00000000	      0.00000000	     -0.10000000	     -0.05000000	     -0.00085074	     77.62538619	      4.17376171	     -1.94576559	    -95.00924647	      0.00305602	     -0.48767347	     17.58569759	      0.03079751	     -0.02291106	     22.79707326	      0.00000000	      0.00000000
      2.27206506	  -1135.90620109	   1140.79756252	      0.00000000	      0.00000000	      0.00000000	     -0.10000000	     -0.05000000	     -0.00085074	     77.60647832	      4.17402752	     -1.94286568	    -94.97277693	      0.00306230	     -0.48766083	     17.58554904	      0.03081214	     -0.02290933	     22.79215041	      0.00000000	      0.00000000
      2.27245814	  -1136.09493398	   1141.02285948	      0.00000000	      0.00000000	      0.00000000	     -0.10000000	     -0.05000000	     -0.00085074	     77.55243132	      4.17478439	     -1.93459636	    -94.86872670	      0.00308015	     -0.48762477	     17.58512579	      0.03085385	     -0.02290440	     22.77815254	      0.00000000	      0.00000000
      2.27262452	  -1136.17481945	   1141.11820835	      0.00000000	      0.00000000	      0.00000000	     -0.10000000	     -0.05000000	     -0.00085074	     77.52949287	      4.17510431	     -1.93109555	    -94.82465298	      0.00308768	     -0.48760950	     17.58494677	      0.03087151	     -0.02290232	     22.77224445	      0.00000000	      0.00000000
      2.27291157	  -1136.31264324	   1141.28269230	      0.00000000	      0.00000000	      0.00000000	     -0.10000000	     -0.05000000	     -0.00085074	     77.48983165	      4.17565565	     -1.92505483	    -94.74856933	      0.00310066	     -0.48758313	     17.58463810	      0.03090197	     -0.02289874	     22.76207497	      0.00000000	      0.00000000
      2.27329169	  -1136.49515354	   1141.50047108	      0.00000000	      0.00000000	      0.00000000	     -0.10000000	     -0.05000000	     -0.00085074	     77.43714341	      4.17638453	     -1.91705384	    -94.64773041	      0.00311778	     -0.48754818	     17.58422973	      0.03094231	     -0.02289401	     22.74865424	      0.00000000	      0.00000000
      2.27334652	  -1136.52147954	   1141.53188100	      0.00000000	      0.00000000	      0.00000000	     -0.10000000	     -0.05000000	     -0.00085074	     77.42952772	      4.17648955	     -1.91589958	    -94.63317689	      0.00312025	     -0.48754313	     17.58417087	      0.03094813	     -0.02289333	     22.74672272	      0.00000000	      0.00000000
      2.27348288	  -1136.58695124	   1141.60999255	      0.00000000	      0.00000000	      0.00000000	     -0.10000000	     -0.05000000	     -0.00085074	     77.41057061	      4.17675061	     -1.91302883	    -94.59697400	      0.00312638	     -0.48753059	     17.58402451	      0.03096260	     -0.02289163	     22.74192383	      0.00000000	      0.00000000
      2.27387479	  -1136.77512237	   1141.83446273	      0.00000000	      0.00000000	      0.00000000	     -0.10000000	     -0.05000000	     -0.00085074	     77.35595013	      4.17749991	     -1.90477669	    -94.49285377	      0.00314394	     -0.48749449	     17.58360422	      0.03100419	     -0.02288678	     22.72816915	      0.00000000	      0.00000000
      2.27403640	  -1136.85271758	   1141.92701392	      0.00000000	      0.00000000	      0.00000000	     -0.10000000	     -0.05000000	     -0.00085074	     77.33336782	      4.17780846	     -1.90137321	    -94.44988803	      0.00315117	     -0.48747960	     17.58343107	      0.03102134	     -0.02288479	     22.72251351	      0.00000000	      0.00000000
      2.27431972	  -1136.98875046	   1142.08924876	      0.00000000	      0.00000000	      0.00000000	     -0.10000000	     -0.05000000	     -0.00085074	     77.29369599	      4.17834877	     -1.89540573	    -94.37452203	      0.00316380	     -0.48745347	     17.58312774	      0.03105141	     -0.02288129	     22.71262159	      0.00000000	      0.00000000
      2.27469469	  -1137.16878804	   1142.30393004	      0.00000000	      0.00000000	      0.00000000	     -0.10000000	     -0.05000000	     -0.00085074	     77.24102958	      4.17906264	     -1.88750628	    -94.27469361	      0.00318048	     -0.48741886	     17.58272676	      0.03109120	     -0.02287669	     22.69957496	      0.00000000	      0.00000000
      2.27475011	  -1137.19539732	   1142.33565631	      0.00000000	      0.00000000	      0.00000000	     -0.10000000	     -0.05000000	     -0.00085074	     77.23323001	      4.17916803	     -1.88633860	    -94.25993117	      0.00318294	     -0.48741375	     17.58266754	      0.03109708	     -0.02287601	     22.69765106	      0.00000000	      0.00000000
      2.27488510	  -1137.26021124	   1142.41293045	      0.00000000	      0.00000000	      0.00000000	     -0.10000000	     -0.05000000	     -0.00085074	     77.21421536	      4.17942460	     -1.88349425	    -94.22396482	      0.00318893	     -0.48740128	     17.58252335	      0.03111140	     -0.02287436	     22.69296961	      0.00000000	      0.00000000
      2.27527644	  -1137.44810869	   1142.63692207	      0.00000000	      0.00000000	      0.00000000	     -0.10000000	     -0.05000000	     -0.00085074	     77.15895744	      4.18016740	     -1.87524712	    -94.11962903	      0.00320623	     -0.48736510	     17.58210577	      0.03115293	     -0.02286957	     22.67943581	      0.00000000	      0.00000000
      2.27543365	  -1137.52359128	   1142.72689265	      0.00000000	      0.00000000	      0.00000000	     -0.10000000	     -0.05000000	     -0.00085074	     77.13670314	      4.18046537	     -1.87193352	    -94.07768655	      0.00321317	     -0.48735056	     17.58193821	      0.03116961	     -0.02286766	     22.67401485	      0.00000000	      0.00000000
      2.27571375	  -1137.65807811	   1142.88717584	      0.00000000	      0.00000000	      0.00000000	     -0.10000000	     -0.05000000	     -0.00085074	     77.09697353	      4.18099563	     -1.86602896	    -94.00291763	      0.00322550	     -0.48732464	     17.58163993	      0.03119933	     -0.02286425	     22.66437893	      0.00000000	      0.00000000
      2.27608389	  -1137.83579663	   1143.09895022	      0.00000000	      0.00000000	      0.00000000	     -0.10000000	     -0.05000000	     -0.00085074	     77.04431713	      4.18169513	     -1.85822487	    -93.90403496	      0.00324174	     -0.48729035	     17.58124631	      0.03123860	     -0.02285976	     22.65168993	      0.00000000	      0.00000000
      2.27613984	  -1137.86266038	   1143.13095858	      0.00000000	      0.00000000	      0.00000000	     -0.10000000	     -0.05000000	     -0.00085074	     77.03634227	      4.18180074	     -1.85704507	    -93.88908018	      0.00324419	     -0.48728516	     17.58118687	      0.03124454	     -0.02285909	     22.64977628	      0.00000000	      0.00000000
      2.27627353	  -1137.92685012	   1143.20743766	      0.00000000	      0.00000000	      0.00000000	     -0.10000000	     -0.05000000	     -0.00085074	     77.01727040	      4.18205297	     -1.85422583	    -93.85333816	      0.00325004	     -0.48727277	     17.58104490	      0.03125873	     -0.02285747	     22.64520839	      0.00000000	      0.00000000
      2.27666438	  -1138.11451230	   1143.43100057	      0.00000000	      0.00000000	      0.00000000	     -0.10000000	     -0.05000000	     -0.00085074	     76.96138103	      4.18278933	     -1.84598242	    -93.74877795	      0.00326709	     -0.48723651	     17.58063033	      0.03130019	     -0.02285276	     22.63189191	      0.00000000	      0.00000000
      2.27681782	  -1138.18818477	   1143.51875565	      0.00000000	      0.00000000	      0.00000000	     -0.10000000	     -0.05000000	     -0.00085074	     76.93938641	      4.18307797	     -1.84274572	    -93.70770269	      0.00327377	     -0.48722226	     17.58046780	      0.03131647	     -0.02285092	     22.62667963	      0.00000000	      0.00000000
      2.27709508	  -1138.32130801	   1143.67730945	      0.00000000	      0.00000000	      0.00000000	     -0.10000000	     -0.05000000	     -0.00085074	     76.89956663	      4.18359892	     -1.83689644	    -93.63344293	      0.00328581	     -0.48719651	     17.58017440	      0.03134588	     -0.02284759	     22.61728342	      0.00000000	      0.00000000
